<?xml version="1.0" encoding="UTF-8"?>
<svg xmlns="http://www.w3.org/2000/svg" xmlns:xlink="http://www.w3.org/1999/xlink"
     width="750" height="750.0" viewBox="-1.05 -1.05 2.1 2.1">
<defs>
</defs>
<circle cx="0" cy="0" r="1" fill="#ff7f00" stroke-width="0.01" stroke="#001a30" />
<path d="M0.8003459955677505,-0.5157312908202063 A3.2991155173554296,3.2991155173554296,0,0,0,-0.2146853267112636,0.5570092532579067 A1.7338664545363291,1.7338664545363291,0,0,0,-0.6113518862591563,-0.6391167066955702 A1.2205175379875892,1.2205175379875892,0,0,0,0.8003459955677505,-0.5157312908202061 Z" stroke="black" stroke-width="0.005" fill="#53565b" fill-opacity="1" />
<path d="M-0.5893103168783631,-0.66292673048971 A0.03299611985523866,0.03299611985523866,0,0,0,-0.6382949717548028,-0.6221221723139632 A3.8399742924480202,3.8399742924480202,0,0,1,-0.30758213883443775,0.5598259194498256 A0.09659298411139255,0.09659298411139255,0,0,0,-0.13799732386326025,0.6115540373631915 A742.033225723302,742.033225723302,0,0,0,0.8094928063363795,-0.5054652281020822 A0.014201288524780045,0.014201288524780045,0,0,0,0.7943878225390463,-0.5281862632520495 A1.7203484887068583,1.7203484887068583,0,0,0,-0.10069194964024941,0.1297272710960795 A1.186178221980234,1.186178221980234,0,0,0,-0.5893103168783632,-0.66292673048971 Z" stroke="black" stroke-width="0.005" fill="#ff9e1b" fill-opacity="0.5" />
</svg>